# xmcd CD database file
#
# Track frame offsets:
#	150
#	18492
#	37685
#	56460
#	80362
#
# Disc length: 1332 seconds
#
# Revision: 0
# Processed by: cddbd v1.5PL3 Copyright (c) Steve Scherf et al.
# Submitted via: CDex 1.51
#
DISCID=2c053205
DTITLE=BAISER - KALEIDOSCOPE
DYEAR=1998
DGENRE=Rock
TTITLE0=くちづけ
TTITLE1=YOU
TTITLE2=ガラス
TTITLE3=SEEK
TTITLE4=ダメージ
EXTD=YEAR: 1998
EXTT0=
EXTT1=
EXTT2=
EXTT3=
EXTT4=
PLAYORDER=
